<svg width="449" height="83" viewBox="0 0 449 83" fill="none" xmlns="http://www.w3.org/2000/svg">
<g clip-path="url(#clip0_335_1008)">
<path d="M4.352 33.4721C5.376 35.2641 6.44267 36.8428 7.552 38.2081C8.704 39.5734 9.984 40.6401 11.392 41.4081C12.8 42.1761 14.4 42.5601 16.192 42.5601C18.5813 42.5601 20.5013 41.8988 21.952 40.5761C23.4027 39.2534 24.128 37.5681 24.128 35.5201C24.128 33.5148 23.6587 31.9148 22.72 30.7201C21.7813 29.5254 20.544 28.5654 19.008 27.8401C17.5147 27.0721 15.9147 26.3894 14.208 25.7921C13.0987 25.4081 11.8613 24.9174 10.496 24.3201C9.13067 23.6801 7.82933 22.8908 6.592 21.9521C5.35467 20.9708 4.33067 19.7761 3.52 18.3681C2.752 16.9601 2.368 15.2321 2.368 13.1841C2.368 10.9654 2.92267 8.98143 4.032 7.2321C5.14133 5.48276 6.67733 4.11743 8.64 3.1361C10.6027 2.1121 12.8427 1.6001 15.36 1.6001C17.792 1.6001 19.904 2.06943 21.696 3.0081C23.5307 3.9041 25.088 5.07743 26.368 6.5281C27.648 7.9361 28.6507 9.42943 29.376 11.0081L24.704 13.6961C24.1493 12.5868 23.4453 11.4988 22.592 10.4321C21.7387 9.36543 20.6933 8.49077 19.456 7.8081C18.2613 7.12543 16.7893 6.7841 15.04 6.7841C12.608 6.7841 10.8373 7.38143 9.728 8.5761C8.61867 9.7281 8.064 11.0294 8.064 12.4801C8.064 13.7174 8.384 14.8694 9.024 15.9361C9.664 16.9601 10.7307 17.9414 12.224 18.8801C13.76 19.7761 15.8293 20.6721 18.432 21.5681C19.6267 21.9948 20.8853 22.5494 22.208 23.2321C23.5307 23.9148 24.7467 24.7894 25.856 25.8561C27.008 26.8801 27.9467 28.1388 28.672 29.6321C29.3973 31.0828 29.76 32.8321 29.76 34.8801C29.76 36.8428 29.376 38.6134 28.608 40.1921C27.8827 41.7708 26.8587 43.1148 25.536 44.2241C24.256 45.3334 22.784 46.1868 21.12 46.7841C19.4987 47.3814 17.792 47.6801 16 47.6801C13.568 47.6801 11.3067 47.1681 9.216 46.1441C7.168 45.0774 5.35467 43.6908 3.776 41.9841C2.24 40.2348 0.981333 38.3788 0 36.4161L4.352 33.4721Z" fill="url(#paint0_linear_335_1008)"/>
<path d="M55.0305 24.6401C55.0305 28.0108 55.7558 31.0188 57.2065 33.6641C58.6998 36.3094 60.7265 38.4001 63.2865 39.9361C65.8465 41.4721 68.7478 42.2401 71.9905 42.2401C75.2758 42.2401 78.1772 41.4721 80.6945 39.9361C83.2545 38.4001 85.2598 36.3094 86.7105 33.6641C88.2038 31.0188 88.9505 28.0108 88.9505 24.6401C88.9505 21.2694 88.2038 18.2614 86.7105 15.6161C85.2598 12.9708 83.2545 10.8801 80.6945 9.3441C78.1772 7.8081 75.2758 7.0401 71.9905 7.0401C68.7478 7.0401 65.8465 7.8081 63.2865 9.3441C60.7265 10.8801 58.6998 12.9708 57.2065 15.6161C55.7558 18.2614 55.0305 21.2694 55.0305 24.6401ZM49.2705 24.6401C49.2705 21.3548 49.8252 18.3254 50.9345 15.5521C52.0865 12.7361 53.6865 10.3041 55.7345 8.2561C57.7825 6.16543 60.1932 4.5441 62.9665 3.3921C65.7398 2.19743 68.7478 1.6001 71.9905 1.6001C75.2758 1.6001 78.2838 2.19743 81.0145 3.3921C83.7878 4.5441 86.1985 6.16543 88.2465 8.2561C90.2945 10.3041 91.8732 12.7361 92.9825 15.5521C94.1345 18.3254 94.7105 21.3548 94.7105 24.6401C94.7105 27.8828 94.1345 30.9121 92.9825 33.7281C91.8732 36.5441 90.2945 38.9974 88.2465 41.0881C86.1985 43.1361 83.7878 44.7574 81.0145 45.9521C78.2838 47.1041 75.2758 47.6801 71.9905 47.6801C68.7478 47.6801 65.7398 47.1041 62.9665 45.9521C60.1932 44.7574 57.7825 43.1361 55.7345 41.0881C53.6865 38.9974 52.0865 36.5441 50.9345 33.7281C49.8252 30.9121 49.2705 27.8828 49.2705 24.6401Z" fill="url(#paint1_linear_335_1008)"/>
<path d="M150.393 2.24H155.833V49.28L121.913 13.696V47.04H116.473V0L150.393 35.584V2.24Z" fill="url(#paint2_linear_335_1008)"/>
<path d="M183.378 24.6401C183.378 28.0108 184.103 31.0188 185.554 33.6641C187.047 36.3094 189.074 38.4001 191.634 39.9361C194.194 41.4721 197.095 42.2401 200.338 42.2401C203.623 42.2401 206.525 41.4721 209.042 39.9361C211.602 38.4001 213.607 36.3094 215.058 33.6641C216.551 31.0188 217.298 28.0108 217.298 24.6401C217.298 21.2694 216.551 18.2614 215.058 15.6161C213.607 12.9708 211.602 10.8801 209.042 9.3441C206.525 7.8081 203.623 7.0401 200.338 7.0401C197.095 7.0401 194.194 7.8081 191.634 9.3441C189.074 10.8801 187.047 12.9708 185.554 15.6161C184.103 18.2614 183.378 21.2694 183.378 24.6401ZM177.618 24.6401C177.618 21.3548 178.173 18.3254 179.282 15.5521C180.434 12.7361 182.034 10.3041 184.082 8.2561C186.13 6.16543 188.541 4.5441 191.314 3.3921C194.087 2.19743 197.095 1.6001 200.338 1.6001C203.623 1.6001 206.631 2.19743 209.362 3.3921C212.135 4.5441 214.546 6.16543 216.594 8.2561C218.642 10.3041 220.221 12.7361 221.33 15.5521C222.482 18.3254 223.058 21.3548 223.058 24.6401C223.058 27.8828 222.482 30.9121 221.33 33.7281C220.221 36.5441 218.642 38.9974 216.594 41.0881C214.546 43.1361 212.135 44.7574 209.362 45.9521C206.631 47.1041 203.623 47.6801 200.338 47.6801C197.095 47.6801 194.087 47.1041 191.314 45.9521C188.541 44.7574 186.13 43.1361 184.082 41.0881C182.034 38.9974 180.434 36.5441 179.282 33.7281C178.173 30.9121 177.618 27.8828 177.618 24.6401Z" fill="url(#paint3_linear_335_1008)"/>
<path d="M247.829 7.36023V2.24023H267.861V7.36023H247.829ZM247.829 25.2802V20.1602H267.221V25.2802H247.829ZM244.821 2.24023H250.261V47.0402H244.821V2.24023Z" fill="url(#paint4_linear_335_1008)"/>
<path d="M290.9 2.24023H296.34V47.0402H290.9V2.24023Z" fill="url(#paint5_linear_335_1008)"/>
<path d="M323.676 47.0402V41.9202H346.268V47.0402H323.676ZM323.676 7.36023V2.24023H346.268V7.36023H323.676ZM323.676 25.2802V20.1602H344.988V25.2802H323.676ZM320.668 2.24023H326.108V47.0402H320.668V2.24023Z" fill="url(#paint6_linear_335_1008)"/>
<path d="M369.935 2.24023H375.375V41.9202H392.975V47.0402H369.935V2.24023Z" fill="url(#paint7_linear_335_1008)"/>
<path d="M412.828 2.24023H418.268V47.0402H412.828V2.24023ZM426.268 47.0402H415.836V41.6002H426.268C428.785 41.6002 431.089 41.2162 433.18 40.4482C435.271 39.6375 437.063 38.5069 438.556 37.0562C440.049 35.5629 441.201 33.7709 442.012 31.6802C442.823 29.5895 443.228 27.2429 443.228 24.6402C443.228 22.0375 442.823 19.6909 442.012 17.6002C441.201 15.5095 440.049 13.7389 438.556 12.2882C437.063 10.7949 435.271 9.66423 433.18 8.89623C431.089 8.08556 428.785 7.68023 426.268 7.68023H415.836V2.24023H426.268C430.62 2.24023 434.481 3.1789 437.852 5.05623C441.223 6.93356 443.868 9.55756 445.788 12.9282C447.708 16.2562 448.668 20.1602 448.668 24.6402C448.668 29.1202 447.708 33.0455 445.788 36.4162C443.868 39.7442 441.223 42.3469 437.852 44.2242C434.481 46.1015 430.62 47.0402 426.268 47.0402Z" fill="url(#paint8_linear_335_1008)"/>
<path d="M102.148 82.0401V80.3761H113.252V82.0401H102.148ZM102.148 61.3041V59.6401H113.252V61.3041H102.148ZM102.148 70.5841V68.9201H112.612V70.5841H102.148ZM101.22 59.6401H102.98V82.0401H101.22V59.6401Z" fill="#D3D0FF" fill-opacity="0.75"/>
<path d="M127.146 74.5199L127.722 72.8559H138.058L138.634 74.5199H127.146ZM132.842 62.8399L128.49 73.4319L128.298 73.8159L124.938 82.0399H122.954L132.842 58.7759L142.73 82.0399H140.746L137.418 73.9439L137.258 73.5279L132.842 62.8399Z" fill="#D3D0FF" fill-opacity="0.75"/>
<path d="M156.545 71.3521H158.497L166.145 82.0401H163.969L156.545 71.3521ZM152.737 59.6401H154.497V82.0401H152.737V59.6401ZM153.665 61.2081V59.6401H157.857C159.308 59.6401 160.599 59.8961 161.729 60.4081C162.881 60.9201 163.788 61.6561 164.449 62.6161C165.111 63.5761 165.441 64.7494 165.441 66.1361C165.441 67.5014 165.111 68.6748 164.449 69.6561C163.788 70.6374 162.881 71.3841 161.729 71.8961C160.599 72.3868 159.308 72.6321 157.857 72.6321H153.665V71.0641H157.857C158.988 71.0641 159.991 70.8828 160.865 70.5201C161.761 70.1361 162.455 69.5814 162.945 68.8561C163.436 68.1094 163.681 67.2028 163.681 66.1361C163.681 65.0694 163.425 64.1734 162.913 63.4481C162.423 62.7228 161.74 62.1681 160.865 61.7841C159.991 61.4001 158.988 61.2081 157.857 61.2081H153.665Z" fill="#D3D0FF" fill-opacity="0.75"/>
<path d="M190.921 61.3041V59.6401H204.457V61.3041H198.569V82.0401H196.809V61.3041H190.921Z" fill="#D3D0FF" fill-opacity="0.75"/>
<path d="M218.447 71.3521H220.399L228.047 82.0401H225.871L218.447 71.3521ZM214.639 59.6401H216.399V82.0401H214.639V59.6401ZM215.567 61.2081V59.6401H219.759C221.209 59.6401 222.5 59.8961 223.631 60.4081C224.783 60.9201 225.689 61.6561 226.351 62.6161C227.012 63.5761 227.343 64.7494 227.343 66.1361C227.343 67.5014 227.012 68.6748 226.351 69.6561C225.689 70.6374 224.783 71.3841 223.631 71.8961C222.5 72.3868 221.209 72.6321 219.759 72.6321H215.567V71.0641H219.759C220.889 71.0641 221.892 70.8828 222.767 70.5201C223.663 70.1361 224.356 69.5814 224.847 68.8561C225.337 68.1094 225.583 67.2028 225.583 66.1361C225.583 65.0694 225.327 64.1734 224.815 63.4481C224.324 62.7228 223.641 62.1681 222.767 61.7841C221.892 61.4001 220.889 61.2081 219.759 61.2081H215.567Z" fill="#D3D0FF" fill-opacity="0.75"/>
<path d="M240.221 74.5199L240.797 72.8559H251.133L251.709 74.5199H240.221ZM245.917 62.8399L241.565 73.4319L241.373 73.8159L238.013 82.0399H236.029L245.917 58.7759L255.805 82.0399H253.821L250.493 73.9439L250.333 73.5279L245.917 62.8399Z" fill="#D3D0FF" fill-opacity="0.75"/>
<path d="M265.748 59.6401H267.508V82.0401H265.748V59.6401Z" fill="#D3D0FF" fill-opacity="0.75"/>
<path d="M296.876 59.6399H298.636V82.9039L281.612 63.3519V82.0399H279.852V58.7759L296.876 78.3919V59.6399Z" fill="#D3D0FF" fill-opacity="0.75"/>
<path d="M311.977 82.0401V80.3761H323.081V82.0401H311.977ZM311.977 61.3041V59.6401H323.081V61.3041H311.977ZM311.977 70.5841V68.9201H322.441V70.5841H311.977ZM311.049 59.6401H312.809V82.0401H311.049V59.6401Z" fill="#D3D0FF" fill-opacity="0.75"/>
<path d="M338.99 71.3521H340.942L348.59 82.0401H346.414L338.99 71.3521ZM335.182 59.6401H336.942V82.0401H335.182V59.6401ZM336.11 61.2081V59.6401H340.302C341.753 59.6401 343.044 59.8961 344.174 60.4081C345.326 60.9201 346.233 61.6561 346.894 62.6161C347.556 63.5761 347.886 64.7494 347.886 66.1361C347.886 67.5014 347.556 68.6748 346.894 69.6561C346.233 70.6374 345.326 71.3841 344.174 71.8961C343.044 72.3868 341.753 72.6321 340.302 72.6321H336.11V71.0641H340.302C341.433 71.0641 342.436 70.8828 343.31 70.5201C344.206 70.1361 344.9 69.5814 345.39 68.8561C345.881 68.1094 346.126 67.2028 346.126 66.1361C346.126 65.0694 345.87 64.1734 345.358 63.4481C344.868 62.7228 344.185 62.1681 343.31 61.7841C342.436 61.4001 341.433 61.2081 340.302 61.2081H336.11Z" fill="#D3D0FF" fill-opacity="0.75"/>
</g>
<defs>
<linearGradient id="paint0_linear_335_1008" x1="69.5596" y1="9.90984e-05" x2="196.688" y2="199.278" gradientUnits="userSpaceOnUse">
<stop stop-color="#7EFFA2"/>
<stop offset="0.5" stop-color="#59ACFF"/>
<stop offset="1" stop-color="#B353FF"/>
</linearGradient>
<linearGradient id="paint1_linear_335_1008" x1="69.5596" y1="9.62252e-05" x2="196.688" y2="199.278" gradientUnits="userSpaceOnUse">
<stop stop-color="#7EFFA2"/>
<stop offset="0.5" stop-color="#59ACFF"/>
<stop offset="1" stop-color="#B353FF"/>
</linearGradient>
<linearGradient id="paint2_linear_335_1008" x1="69.5596" y1="-2.69508e-06" x2="196.688" y2="199.278" gradientUnits="userSpaceOnUse">
<stop stop-color="#7EFFA2"/>
<stop offset="0.5" stop-color="#59ACFF"/>
<stop offset="1" stop-color="#B353FF"/>
</linearGradient>
<linearGradient id="paint3_linear_335_1008" x1="69.5596" y1="9.49266e-05" x2="196.688" y2="199.278" gradientUnits="userSpaceOnUse">
<stop stop-color="#7EFFA2"/>
<stop offset="0.5" stop-color="#59ACFF"/>
<stop offset="1" stop-color="#B353FF"/>
</linearGradient>
<linearGradient id="paint4_linear_335_1008" x1="69.5597" y1="0.000227775" x2="196.688" y2="199.278" gradientUnits="userSpaceOnUse">
<stop stop-color="#7EFFA2"/>
<stop offset="0.5" stop-color="#59ACFF"/>
<stop offset="1" stop-color="#B353FF"/>
</linearGradient>
<linearGradient id="paint5_linear_335_1008" x1="69.5595" y1="0.00023017" x2="196.688" y2="199.278" gradientUnits="userSpaceOnUse">
<stop stop-color="#7EFFA2"/>
<stop offset="0.5" stop-color="#59ACFF"/>
<stop offset="1" stop-color="#B353FF"/>
</linearGradient>
<linearGradient id="paint6_linear_335_1008" x1="69.5595" y1="0.000221549" x2="196.688" y2="199.278" gradientUnits="userSpaceOnUse">
<stop stop-color="#7EFFA2"/>
<stop offset="0.5" stop-color="#59ACFF"/>
<stop offset="1" stop-color="#B353FF"/>
</linearGradient>
<linearGradient id="paint7_linear_335_1008" x1="69.5595" y1="0.000228267" x2="196.688" y2="199.278" gradientUnits="userSpaceOnUse">
<stop stop-color="#7EFFA2"/>
<stop offset="0.5" stop-color="#59ACFF"/>
<stop offset="1" stop-color="#B353FF"/>
</linearGradient>
<linearGradient id="paint8_linear_335_1008" x1="69.5596" y1="0.000234466" x2="196.688" y2="199.278" gradientUnits="userSpaceOnUse">
<stop stop-color="#7EFFA2"/>
<stop offset="0.5" stop-color="#59ACFF"/>
<stop offset="1" stop-color="#B353FF"/>
</linearGradient>
<clipPath id="clip0_335_1008">
<rect width="449" height="83" fill="white"/>
</clipPath>
</defs>
</svg>
